<svg width="31" height="30" viewBox="0 0 31 30" fill="none" xmlns="http://www.w3.org/2000/svg">
<path fill-rule="evenodd" clip-rule="evenodd" d="M12.1321 16.1904H15.7854C15.1565 14.0476 14.5372 12.0666 13.9278 10.0533C13.3364 12.0738 12.7365 14.0476 12.1321 16.1904ZM30.233 0H1.41707C0.897506 0 0.9719 0.113333 0.9719 0.615474V29.5187C0.9719 30.0204 0.897506 29.9999 1.38047 29.9999H30.2696C30.7523 29.9999 30.9194 30.0204 30.9194 29.5185V0.65214C30.9194 0.113333 30.7525 0 30.233 0ZM19.1063 22.619C18.7172 22.619 18.3267 22.5873 17.9395 22.6152C17.6603 22.6361 17.5668 22.5185 17.4925 22.2756C17.1326 21.1016 16.7502 19.928 16.3901 18.7542C16.3176 18.518 16.214 18.4318 15.9585 18.4349C14.6458 18.4502 13.3324 18.4487 12.0194 18.4333C11.743 18.4299 11.6159 18.5037 11.5369 18.7785C11.2028 19.9461 10.8372 21.1042 10.4995 22.2706C10.4263 22.5235 10.315 22.6118 10.0469 22.6049C9.25832 22.5852 8.46852 22.5973 7.60503 22.5973C7.83296 21.8723 8.03974 21.2018 8.25365 20.5342C9.56421 16.439 10.8793 12.3438 12.1803 8.24592C12.2711 7.96068 12.3973 7.87283 12.6897 7.87925C13.6133 7.89973 14.5376 7.88449 15.4617 7.87925C15.6345 7.87806 15.7524 7.8883 15.8156 8.08497C17.3617 12.8745 18.9133 17.6935 20.4634 22.4825C20.4701 22.5042 20.4658 22.619 20.4694 22.619H19.1063ZM24.0267 22.619H21.1746V11.9047H24.0267V22.619ZM22.5175 10.4592C21.6464 10.4581 21.0227 9.85734 21.0168 9.01401C21.011 8.17306 21.6601 7.54759 22.5393 7.54664C23.4254 7.54568 24.0498 8.15068 24.0567 9.01592C24.0628 9.85996 23.4228 10.4607 22.5175 10.4592Z" fill="#FAA625"/>
</svg>
