<svg width="20" height="30" viewBox="0 0 20 30" fill="none" xmlns="http://www.w3.org/2000/svg">
<path fill-rule="evenodd" clip-rule="evenodd" d="M9.98389 14.9988C9.98389 12.2375 12.2189 9.99902 14.9759 9.99902C17.7328 9.99902 19.9678 12.2375 19.9678 14.9988C19.9678 17.76 17.7328 19.9985 14.9759 19.9985C12.2189 19.9985 9.98389 17.76 9.98389 14.9988Z" fill="#1ABCFE"/>
<path fill-rule="evenodd" clip-rule="evenodd" d="M0 25.0007C0 22.2395 2.23498 20.001 4.99198 20.001H9.98395V25.0007C9.98395 27.762 7.74892 30.0005 4.99198 30.0005C2.23498 30.0005 0 27.762 0 25.0007Z" fill="#0ACF83"/>
<path fill-rule="evenodd" clip-rule="evenodd" d="M9.98389 0V9.99951H14.9759C17.7328 9.99951 19.9678 7.76099 19.9678 4.99975C19.9678 2.23846 17.7328 0 14.9759 0H9.98389Z" fill="#FF7262"/>
<path fill-rule="evenodd" clip-rule="evenodd" d="M0 4.99975C0 7.76099 2.23498 9.99951 4.99198 9.99951H9.98395V0H4.99198C2.23498 0 0 2.23846 0 4.99975Z" fill="#F24E1E"/>
<path fill-rule="evenodd" clip-rule="evenodd" d="M0 14.9988C0 17.76 2.23498 19.9985 4.99198 19.9985H9.98395V9.99902H4.99198C2.23498 9.99902 0 12.2375 0 14.9988Z" fill="#A259FF"/>
</svg>
