<svg width="30" height="30" viewBox="0 0 30 30" fill="none" xmlns="http://www.w3.org/2000/svg">
<path d="M0 5C0 2.23858 2.23858 0 5 0H25C27.7614 0 30 2.23858 30 5V25C30 27.7614 27.7614 30 25 30H5C2.23858 30 0 27.7614 0 25V5Z" fill="#F7DF1E"/>
<path d="M7.09923 24.5636L9.16536 23.3132C9.56403 24.0199 9.92663 24.6179 10.7964 24.6179C11.6302 24.6179 12.1559 24.2918 12.1559 23.0232V14.3961H14.6932V23.0591C14.6932 25.6871 13.1527 26.8833 10.9052 26.8833C8.87543 26.8833 7.69723 25.8321 7.09912 24.5634M16.0713 24.2917L18.1373 23.0956C18.6812 23.9837 19.388 24.6362 20.6385 24.6362C21.6899 24.6362 22.3602 24.1105 22.3602 23.3855C22.3602 22.5156 21.6715 22.2074 20.5116 21.7001L19.8774 21.428C18.0468 20.6489 16.8325 19.6702 16.8325 17.604C16.8325 15.701 18.2824 14.251 20.548 14.251C22.161 14.251 23.321 14.8129 24.1546 16.2809L22.1789 17.5497C21.7439 16.7704 21.2729 16.4623 20.5479 16.4623C19.8047 16.4623 19.3335 16.9336 19.3335 17.5497C19.3335 18.3109 19.8047 18.6192 20.8921 19.0904L21.5264 19.3622C23.6832 20.2866 24.8975 21.229 24.8975 23.3493C24.8975 25.6332 23.1033 26.8836 20.6928 26.8836C18.3367 26.8836 16.8143 25.7599 16.0712 24.2918" fill="black"/>
</svg>
