<svg width="17" height="18" viewBox="0 0 17 18" fill="none" xmlns="http://www.w3.org/2000/svg">
<path d="M1.77528 1.32538L2.3889 0.710054C2.77965 0.318221 3.41433 0.318222 3.80508 0.710055L6.38174 3.29387C6.77096 3.68417 6.77096 4.31583 6.38174 4.70612L4.59263 6.50021C4.29483 6.79883 4.22166 7.25558 4.40984 7.633C5.4973 9.81396 7.26634 11.5905 9.44489 12.6828C9.82255 12.8721 10.2791 12.798 10.5774 12.4988L12.3612 10.7101C12.7519 10.3182 13.3866 10.3182 13.7774 10.7101L16.354 13.2939C16.7433 13.6842 16.7433 14.3158 16.354 14.7061L15.7567 15.3051C13.6439 17.4238 10.2931 17.662 7.90177 15.8636L6.72015 14.9749C4.97837 13.665 3.43162 12.1141 2.1263 10.3688L1.21901 9.15574C-0.565639 6.7696 -0.328769 3.43528 1.77528 1.32538Z" fill="#222222"/>
</svg>
