<svg width="27" height="30" viewBox="0 0 27 30" fill="none" xmlns="http://www.w3.org/2000/svg">
<path d="M25.9329 6.64734L14.8056 0.294743C14.1038 -0.0982476 13.1901 -0.0982476 12.4828 0.294743L1.2367 6.64734C0.512495 7.05696 0 7.82681 0 8.65025V21.3386C0 22.162 0.525869 22.9321 1.25007 23.344L4.22134 25.0033C5.64149 25.691 6.14338 25.691 6.78962 25.691C8.89234 25.691 10.0935 24.4408 10.0935 22.2603V9.73371C10.0935 9.55681 9.99984 9.29358 9.82321 9.29358H8.40432C8.22465 9.29358 7.82243 9.55681 7.82243 9.73346V22.26C7.82243 23.2266 6.9332 24.1885 5.27131 23.3715L2.20113 21.6316C2.09414 21.5745 2.01869 21.4597 2.01869 21.3386V8.65025C2.01869 8.53067 2.15874 8.41059 2.26649 8.34931L13.4763 2.00762C13.581 1.94932 13.7349 1.94932 13.8394 2.00762L24.9124 8.34782C25.0184 8.41059 24.9811 8.52695 24.9811 8.65025V21.3386C24.9811 21.4597 25.0272 21.5775 24.9225 21.6358L13.798 27.9812C13.7026 28.0375 13.5843 28.0375 13.4798 27.9812L10.6266 26.3068C10.5406 26.2577 10.4384 26.24 10.3559 26.2854C9.56204 26.7278 9.41568 26.7866 8.67104 27.0404C8.48784 27.1032 8.21759 27.2121 8.7745 27.519L12.5086 29.6909C12.8651 29.8933 13.2695 29.9999 13.6812 30C14.0955 30 14.5013 29.8943 14.8588 29.6909L25.9326 23.344C26.6568 22.9292 27 22.162 27 21.3386V8.65025C27 7.82681 26.6568 7.05894 25.9329 6.64734ZM17.1362 19.328C14.1773 19.328 13.5255 18.5254 13.3082 17.0787C13.283 16.9229 13.1485 16.7366 12.9873 16.7366H11.5411C11.3622 16.7366 11.2184 16.9499 11.2184 17.1251C11.2184 18.9774 12.2426 21.2217 17.1364 21.2217C20.679 21.2217 22.71 19.8683 22.71 17.4732C22.71 15.0984 21.0782 14.4751 17.6426 14.0281C14.17 13.5768 13.8172 13.3488 13.8172 12.5489C13.8172 11.8894 14.116 11.0099 16.6873 11.0099C18.9848 11.0099 19.8316 11.4947 20.1801 13.0173C20.2099 13.1605 20.3429 13.2632 20.493 13.2632H21.9449C22.0343 13.2632 22.1196 13.2277 22.1821 13.1649C22.2427 13.0974 22.2747 13.0128 22.2667 12.922C22.0418 10.3001 20.2702 9.07823 16.687 9.07823C13.4997 9.07823 11.5984 10.4016 11.5984 12.6199C11.5984 15.0259 13.4902 15.6908 16.5497 15.9883C20.2099 16.3411 20.4945 16.8671 20.4945 17.5749C20.4945 18.8042 19.4907 19.328 17.1362 19.328Z" fill="#83CD29"/>
</svg>
