<svg width="30" height="30" viewBox="0 0 30 30" fill="none" xmlns="http://www.w3.org/2000/svg">
<path d="M12.3212 14.9716C12.3212 13.3165 13.5205 11.9746 15.0001 11.9746C16.4795 11.9746 17.679 13.3165 17.679 14.9716C17.679 16.6269 16.4795 17.9687 15.0001 17.9687C13.5205 17.9687 12.3212 16.6269 12.3212 14.9716Z" fill="#53C1DE"/>
<path fill-rule="evenodd" clip-rule="evenodd" d="M6.2996 9.40811C5.7339 6.83628 5.0228 2.06709 7.5296 0.450183C10.0247 -1.15967 13.2716 1.92511 14.9861 3.77674C16.6956 1.94356 20.0337 -1.12804 22.5384 0.494006C25.0325 2.10926 24.2634 6.79938 23.6851 9.38735C26.0117 10.1266 30 11.7189 30 14.9722C30 18.2162 26.0158 19.9486 23.703 20.6872C24.2834 23.2895 25.014 27.9126 22.5167 29.5243C20.0027 31.146 16.675 28.1475 14.9446 26.2756C13.2191 28.1382 10.0034 31.1563 7.5078 29.5401C5.0044 27.9188 5.6564 23.2135 6.2347 20.6106C3.9927 19.8704 0 18.1757 0 14.9722C0 11.7502 4.0097 10.145 6.2996 9.40811ZM6.5838 19.2312C6.9635 17.8865 7.476 16.4565 8.1029 14.9793C7.5045 13.537 7.0119 12.1255 6.6428 10.7895C4.9641 11.334 1.2815 12.5784 1.2815 14.9722C1.2815 17.3885 4.8154 18.6447 6.5838 19.2312ZM8.15 28.2992C10.012 29.505 12.7779 26.6188 14.0522 25.2472C13.2068 24.2128 12.362 23.0102 11.5375 21.6749C10.0871 21.531 8.717 21.2956 7.4744 20.9743C7.0674 22.8155 6.2798 27.088 8.15 28.2992ZM21.8764 28.282C23.7386 27.0808 22.8874 22.9553 22.4604 21.0384C21.2317 21.3426 19.8714 21.5613 18.4176 21.6932C17.5877 22.9998 16.7184 24.2009 15.8424 25.2527C16.9247 26.424 20.0055 29.4888 21.8764 28.282ZM28.7185 14.9722C28.7185 12.5469 25.0579 11.3115 23.341 10.7684C22.9655 12.1344 22.4731 13.5628 21.8788 15.0072C22.4808 16.473 22.9802 17.924 23.3591 19.3062C24.9963 18.7818 28.7185 17.399 28.7185 14.9722ZM21.8963 1.73485C20.0265 0.524029 17.1253 3.47288 15.8841 4.80015C16.7556 5.84716 17.6169 7.03915 18.4397 8.33827C19.8506 8.48457 21.2013 8.7195 22.4429 9.03427C22.9088 6.94697 23.7641 2.94437 21.8963 1.73485ZM10.6207 9.89665C9.6635 10.0318 8.7464 10.2115 7.8853 10.4315C8.1438 11.3585 8.466 12.3278 8.8455 13.3215C9.3956 12.1538 9.9861 11.0095 10.6207 9.89665ZM14.9857 5.82473C14.3946 6.54112 13.8026 7.34111 13.2202 8.20904C14.4015 8.1465 15.5847 8.14627 16.766 8.20811C16.1831 7.34824 15.586 6.54944 14.9857 5.82473ZM21.1435 13.3205C21.5167 12.3302 21.836 11.3566 22.0968 10.4163C21.2408 10.2021 20.328 10.0269 19.377 9.894C20.0134 11.0045 20.6029 12.1483 21.1435 13.3205ZM19.3497 20.1527C20.3321 20.0301 21.2587 19.8638 22.1144 19.6554C21.8496 18.6987 21.5232 17.704 21.142 16.6925C20.594 17.8769 19.9955 19.0318 19.3497 20.1527ZM14.9502 24.221C15.5576 23.4877 16.1635 22.6767 16.7552 21.8043C15.5672 21.8565 14.3769 21.8566 13.189 21.7973C13.7732 22.6855 14.3631 23.4977 14.9502 24.221ZM8.8333 16.641C8.4323 17.6635 8.0943 18.6527 7.8258 19.5933C8.6957 19.8155 9.6348 19.9943 10.6243 20.1271C9.985 18.9931 9.3851 17.8311 8.8333 16.641ZM12.2527 20.3009C14.0699 20.4462 15.8984 20.4445 17.7162 20.3128C18.7491 18.6248 19.6686 16.8496 20.4623 15.0067C19.6724 13.1676 18.7596 11.3958 17.7316 9.71054C15.9125 9.55673 14.0822 9.55627 12.2631 9.71146C11.2439 11.3967 10.3325 13.1638 9.5243 14.9863C10.3229 16.8245 11.2405 18.5998 12.2527 20.3009ZM8.1697 1.69223C6.2994 2.89908 7.1319 7.1853 7.5405 9.04915C8.7851 8.72781 10.1367 8.48873 11.5517 8.34011C12.3761 7.02697 13.2302 5.8329 14.0876 4.79941C12.8305 3.44355 10.0219 0.497179 8.1697 1.69223Z" fill="#53C1DE"/>
</svg>
