<svg width="26" height="29" viewBox="0 0 26 29" fill="none" xmlns="http://www.w3.org/2000/svg">
<path d="M25.895 7.33791L25.9672 7.29103C25.8227 7.03314 25.6059 6.79871 25.3891 6.68149L13.7544 0.164107C13.5617 0.0468876 13.2968 0 13.0077 0C12.7186 0 12.4537 0.0703314 12.261 0.164107L0.698562 6.70493C0.28906 6.93937 0 7.52546 0 7.9709V21.0291C0 21.287 0.0481766 21.5683 0.216795 21.8262L0.168618 21.8496C0.28906 22.0372 0.457678 22.2013 0.626297 22.2951L12.2369 28.8359C12.4296 28.9531 12.6946 29 12.9836 29C13.2727 29 13.5376 28.9297 13.7303 28.8359L25.2928 22.2951C25.7023 22.0606 25.9913 21.4745 25.9913 21.0291V7.94745C26.0154 7.7599 25.9913 7.54891 25.895 7.33791ZM13.0077 23.7486C7.75644 23.7486 3.49281 19.599 3.49281 14.4883C3.49281 9.37753 7.75644 5.22797 13.0077 5.22797C16.5487 5.22797 19.632 7.12692 21.27 9.91673L18.1385 11.675C17.1268 9.91673 15.1997 8.74454 13.0077 8.74454C9.75577 8.74454 7.10606 11.3234 7.10606 14.4883C7.10606 17.6532 9.75577 20.232 13.0077 20.232C15.1997 20.232 17.1268 19.0598 18.1385 17.325L21.2459 19.1067C19.6079 21.8731 16.5246 23.7486 13.0077 23.7486ZM25.2928 14.0194H24.5219L24.3051 14.9572H25.2928V16.1293H24.0883L23.7993 17.536H22.6189L22.908 16.1293H21.9926L21.7036 17.536H20.5473L20.8364 16.1293H20.2342V14.9572H21.0773L21.2941 14.0194H20.2342V12.8472H21.5109L21.7999 11.4406H22.9803L22.6912 12.8472H23.6066L23.8956 11.4406H25.0519L24.7628 12.8472H25.2928V14.0194ZM22.2335 14.9572H23.1489L23.3657 14.0194H22.4503L22.2335 14.9572Z" fill="#68217A"/>
</svg>
