<svg width="13" height="30" viewBox="0 0 13 30" fill="none" xmlns="http://www.w3.org/2000/svg">
<path fill-rule="evenodd" clip-rule="evenodd" d="M0.00528508 8.04503C0.215974 10.2947 0.424981 12.5317 0.638793 14.8188C0.987378 14.2108 1.23963 13.6277 1.62017 13.1501C1.97452 12.7052 2.42112 12.2946 2.90712 12.0102C3.54159 11.6388 4.37353 11.9885 4.57918 12.6472C4.63443 12.8238 4.50254 13.0607 4.45642 13.27C4.30122 13.1869 4.1011 13.1411 3.99972 13.0139C3.56898 12.4737 3.30952 12.4098 2.83313 12.8767C1.94449 13.7481 1.44479 14.8398 1.25404 16.0667C1.21729 16.3041 1.36359 16.5704 1.42533 16.8233C1.66821 16.7385 1.95025 16.7073 2.14653 16.5592C2.7846 16.0774 3.18003 15.4222 3.39817 14.639C3.44549 14.4694 3.70207 14.36 3.86255 14.2228C3.93942 14.3831 4.1148 14.572 4.07804 14.6989C3.73822 15.8783 3.3749 17.0505 2.98832 18.215C2.9494 18.3329 2.73583 18.3917 2.60298 18.4779C2.54941 18.3229 2.43673 18.1606 2.45475 18.0147C2.49511 17.6838 2.6001 17.3609 2.67337 17.0578L0.934046 17.8699C1.03134 18.9962 1.13224 20.2597 1.25188 21.5215C1.34365 22.485 1.49909 22.7345 2.43457 22.9173C3.52621 23.1305 4.63828 23.2667 5.74793 23.3496C7.38215 23.4744 9.02541 23.3176 10.608 22.8856C11.2018 22.7238 11.4387 22.3276 11.4812 21.7362C11.5201 21.1915 11.6071 20.6503 11.6674 20.1072C11.7858 19.0372 11.9009 17.9669 12.022 16.8521C11.6215 17.1094 11.3066 17.3974 10.9383 17.5195C10.6702 17.6085 10.3319 17.4783 10.0247 17.4457C10.0835 17.1596 10.0799 16.8372 10.2159 16.596C10.4374 16.2017 10.7502 15.8598 11.024 15.4958L10.9061 15.3518C10.7098 15.4695 10.466 15.5467 10.3264 15.7136C10.0424 16.0533 9.76447 16.4169 9.57445 16.815C9.25637 17.4815 9.01397 18.185 8.72929 18.8683C8.60557 19.1646 8.4989 19.6178 8.08449 19.4448C7.64125 19.2594 7.95308 18.8634 8.0571 18.5817C8.22263 18.1324 8.44124 17.703 8.58923 17.3726C8.16977 17.4233 7.74455 17.4844 7.31741 17.5222C7.13675 17.5378 6.92198 17.4374 6.77423 17.5051C6.28294 17.7303 5.9716 17.6399 5.8695 17.0882C5.64199 17.2381 5.44932 17.4411 5.22229 17.4956C4.94674 17.5622 4.57293 17.6058 4.37113 17.4662C4.20945 17.3543 4.15059 16.934 4.20585 16.6874C4.31564 16.1971 4.5208 15.7258 4.71563 15.2596C4.83623 14.9709 4.95755 14.5098 5.36451 14.7106C5.76667 14.9087 5.40151 15.2431 5.30878 15.5114C5.16488 15.9261 5.01833 16.3401 4.87323 16.7544L5.10386 16.8957C5.32343 16.7022 5.59707 16.5446 5.75082 16.3072C6.00259 15.9193 6.15466 15.466 6.39297 15.0679C6.49171 14.9029 6.70432 14.8084 6.86552 14.6819C6.8982 14.8919 6.97651 15.1078 6.95057 15.3106C6.92486 15.5155 6.78288 15.7029 6.71489 15.9056C6.61279 16.2093 6.53039 16.5197 6.42661 16.8728C6.91741 16.8918 7.12762 16.6822 7.26624 16.3126C7.70491 15.1446 8.14839 13.9779 8.63055 12.828C8.71295 12.6311 8.99307 12.52 9.18214 12.3689C9.204 12.6062 9.30826 12.8752 9.23403 13.0753C8.83884 14.1351 8.39512 15.1758 7.97806 16.2273C7.90767 16.4044 7.88509 16.6011 7.84065 16.7887C8.57554 16.4537 9.18886 16.0833 9.41277 15.2911C9.46754 15.0986 9.69192 14.9555 9.83823 14.7896L10.1784 15.1551C10.2817 15.0669 10.3764 14.9665 10.4886 14.8932C10.8417 14.6624 11.222 14.4589 11.5944 14.8164C11.9797 15.1861 11.6881 15.5462 11.4867 15.8659C11.2676 16.2146 10.9993 16.5312 10.7523 16.8616C11.3078 16.4985 12.0662 16.3357 12.1671 15.5511C12.4131 13.6345 12.6293 11.7141 12.8487 9.79416C12.9138 9.2259 12.9486 8.65399 12.9993 8.06185C8.62455 9.13623 4.34374 9.14281 0.00528508 8.04503ZM1.88298 22.9994C2.09367 23.564 2.41367 24.1186 2.49751 24.7078C2.67457 25.962 2.71949 27.2353 2.8449 28.498C2.86316 28.682 2.98063 28.9347 3.12718 29.0156C5.28452 30.2047 7.46275 30.4109 9.66381 29.1104C9.99222 28.9164 10.053 28.6603 10.0955 28.3001C10.3014 26.5503 9.84303 24.6942 10.946 23.0464C7.85746 23.8235 4.8432 23.8476 1.88298 22.9994ZM9.3282 8.35913C10.3761 8.25655 11.4113 8.00702 12.4477 7.80087C12.643 7.76212 12.8165 7.61128 13 7.51211C12.7581 7.29645 12.5488 7.19264 12.3302 7.16657C11.2419 7.0362 10.1498 6.9358 9.06226 6.7991C8.89794 6.77839 8.6046 6.57272 8.61686 6.5352C8.93421 5.56535 8.9186 4.46758 9.63883 3.65028C10.5491 2.61708 11.4687 1.59289 12.3814 0.568221C11.7025 -0.172564 11.6933 -0.173539 11.0781 0.474892C10.7302 0.841385 10.4124 1.24248 10.035 1.57437C8.63848 2.80203 7.65759 4.25606 7.46636 6.17309C7.42239 6.61293 7.18432 6.77181 6.72907 6.77863C5.22614 6.80081 3.72153 6.84272 2.22196 6.94287C1.47891 6.99234 0.744978 7.18582 0.00672664 7.31399L0 7.59398C0.461978 7.73848 0.915066 7.92831 1.38689 8.02018C4.01606 8.53141 6.66997 8.61914 9.3282 8.35913ZM8.48833 7.6895C7.89326 8.17686 7.40149 8.17686 6.92654 7.6895H8.48833Z" fill="#EB4A4B"/>
</svg>
