<svg width="30" height="30" viewBox="0 0 30 30" fill="none" xmlns="http://www.w3.org/2000/svg">
<path d="M20.7861 20.9521C18.6767 25.4946 14.9829 28.5509 10.0962 29.5556C9.34696 29.749 8.57779 29.8435 7.80639 29.8371C4.99389 29.8371 2.41576 28.6027 1.1642 26.5808C-0.516269 23.8874 -1.08814 18.1773 4.45248 13.9533C4.56498 14.5976 4.79467 15.4814 4.94701 16.0048C3.85935 16.8559 2.96907 17.9557 2.34311 19.2215C1.31186 21.3545 1.4267 23.485 2.64779 25.4551C3.49154 26.7832 4.82748 27.5905 6.54545 27.8374C8.69124 28.1235 10.8681 27.6917 12.7681 26.603C15.747 24.9539 17.7322 22.9839 19.0306 20.2905C18.6635 19.8908 18.4461 19.3646 18.4189 18.8092C18.3993 18.2133 18.6049 17.6334 18.9907 17.197C19.3765 16.7605 19.9109 16.5031 20.4767 16.4812H20.5564C21.1067 16.4783 21.637 16.6984 22.0376 17.0958C22.4382 17.4933 22.6783 18.0377 22.7085 18.6165C22.7386 19.1953 22.5563 19.7641 22.1993 20.2053C21.8424 20.6465 21.3381 20.9262 20.7908 20.9867L20.7861 20.9521ZM27.5056 15.9653C30.3673 19.382 30.4447 23.4036 29.3384 25.7365C28.3072 27.867 25.5884 30 21.9322 30C20.2254 29.9633 18.5463 29.538 17.0103 28.7533C17.547 28.3509 18.3087 27.7065 18.7283 27.3041C19.9128 27.8447 21.1875 28.1317 22.4783 28.1485C24.8455 28.1485 26.6384 26.9832 27.7072 24.8527C28.3939 23.4455 28.4337 21.7964 27.7845 20.1078C26.9879 17.9832 25.5703 16.1805 23.7369 14.9605C21.3314 13.2525 18.4956 12.342 15.5947 12.3461H14.9079C14.7478 12.7357 14.4873 13.0704 14.1559 13.3121C13.8246 13.5538 13.4355 13.693 13.0329 13.7138H12.9603C12.4035 13.7066 11.8712 13.471 11.4766 13.0571C11.082 12.6432 10.8562 12.0836 10.847 11.4971C10.8379 10.9106 11.0462 10.3434 11.4276 9.91607C11.8091 9.48872 12.3337 9.23484 12.89 9.20836H12.9673C13.355 9.20867 13.7351 9.3215 14.0659 9.53446C14.3966 9.74743 14.6653 10.0523 14.8423 10.4156H15.454C20.329 10.4156 24.6087 12.3856 27.5056 15.9653ZM8.11107 21.6434C8.07094 21.2334 8.16523 20.8213 8.37826 20.4756C6.24076 16.575 5.09701 11.6302 6.85248 6.48288C8.11107 2.61438 11.2798 0 14.7158 0C18.3814 0 22.1994 3.37969 22.6564 9.8922C22.0845 9.69223 21.2501 9.39845 20.7486 9.28983C20.6244 7.15931 18.9158 1.85155 14.8681 1.93055C13.4173 1.97251 11.2798 2.69585 10.1806 4.18203C8.82091 5.95611 8.02992 8.13841 7.92123 10.4156C7.66358 13.538 8.35907 16.6654 9.90639 19.3425C9.99181 19.3096 10.0829 19.2962 10.1736 19.303H10.2486C10.8155 19.2922 11.3632 19.519 11.7713 19.9336C12.1795 20.3482 12.4145 20.9166 12.4247 21.5137C12.435 22.1109 12.2196 22.6878 11.826 23.1177C11.4324 23.5476 10.8928 23.7952 10.3259 23.806H10.2486C9.69552 23.8039 9.16456 23.5771 8.76635 23.1728C8.36814 22.7686 8.13341 22.218 8.11107 21.6359V21.6434Z" fill="#764ABC"/>
</svg>
