<svg width="31" height="30" viewBox="0 0 31 30" fill="none" xmlns="http://www.w3.org/2000/svg">
<path d="M30.5568 2.20588V27.7941C30.5568 28.3792 30.325 28.9402 29.9125 29.3539C29.5 29.7676 28.9404 30 28.357 30H2.83966C2.25625 30 1.69673 29.7676 1.28419 29.3539C0.871654 28.9402 0.639893 28.3792 0.639893 27.7941L0.639893 2.20588C0.639893 1.62085 0.871654 1.05977 1.28419 0.646088C1.69673 0.232405 2.25625 0 2.83966 0L28.357 0C28.9404 0 29.5 0.232405 29.9125 0.646088C30.325 1.05977 30.5568 1.62085 30.5568 2.20588V2.20588ZM9.43898 11.4706H5.03944V25.5882H9.43898V11.4706ZM9.83494 6.61765C9.83726 6.28393 9.774 5.95303 9.64879 5.64383C9.52358 5.33463 9.33885 5.05319 9.10517 4.81558C8.87149 4.57797 8.59342 4.38884 8.28684 4.259C7.98027 4.12915 7.65119 4.06113 7.3184 4.05882H7.23921C6.56245 4.05882 5.9134 4.32841 5.43486 4.80829C4.95632 5.28816 4.68747 5.939 4.68747 6.61765C4.68747 7.29629 4.95632 7.94714 5.43486 8.42701C5.9134 8.90688 6.56245 9.17647 7.23921 9.17647V9.17647C7.57202 9.18468 7.90319 9.12705 8.21378 9.00687C8.52437 8.8867 8.80831 8.70633 9.04937 8.47608C9.29042 8.24582 9.48387 7.9702 9.61867 7.66494C9.75346 7.35969 9.82695 7.0308 9.83494 6.69706V6.61765ZM26.1572 17.0118C26.1572 12.7676 23.4647 11.1176 20.7898 11.1176C19.914 11.0737 19.042 11.2607 18.2607 11.6602C17.4795 12.0596 16.8164 12.6575 16.3375 13.3941H16.2143V11.4706H12.0787V25.5882H16.4782V18.0794C16.4147 17.3104 16.6562 16.5472 17.1505 15.9558C17.6447 15.3643 18.3518 14.9923 19.118 14.9206H19.2852C20.6842 14.9206 21.7225 15.8029 21.7225 18.0265V25.5882H26.122L26.1572 17.0118Z" fill="#4AB1C8"/>
</svg>
