<svg width="24" height="30" viewBox="0 0 24 30" fill="none" xmlns="http://www.w3.org/2000/svg">
<path fill-rule="evenodd" clip-rule="evenodd" d="M0.224365 5.61284C0.224365 2.51295 2.98789 0 6.39687 0H16.9881C20.3971 0 23.1607 2.51295 23.1607 5.61284C23.1607 7.57572 22.0526 9.30326 20.3743 10.3065C22.0526 11.3097 23.1607 13.0372 23.1607 15.0001C23.1607 18.1 20.3971 20.613 16.9881 20.613H16.8541C15.2559 20.613 13.7996 20.0607 12.7034 19.1545V24.3262C12.7034 27.4674 9.8677 30 6.43017 30C3.02966 30 0.224365 27.4947 0.224365 24.3871C0.224365 22.4243 1.33232 20.6969 3.01055 19.6936C1.33232 18.6904 0.224365 16.9629 0.224365 15.0001C0.224365 13.0372 1.33241 11.3097 3.01074 10.3065C1.3324 9.30326 0.224365 7.57572 0.224365 5.61284ZM10.6816 18.7743H6.39687L6.37241 18.7743C4.09132 18.7624 2.24623 17.0772 2.24623 15.0001C2.24623 12.9156 4.10452 11.2258 6.39687 11.2258H10.6816V18.7743ZM12.7034 15.0025C12.7048 17.0859 14.5626 18.7744 16.8541 18.7744H16.9881C19.2805 18.7744 21.1388 17.0846 21.1388 15.0001C21.1388 12.9156 19.2805 11.2258 16.9881 11.2258H16.8541C14.5626 11.2258 12.7048 12.9143 12.7034 14.9978V15.0025ZM6.39687 20.613L6.37257 20.6129C4.09141 20.6248 2.24623 22.31 2.24623 24.3871C2.24623 26.464 4.12935 28.1615 6.43017 28.1615C8.768 28.1615 10.6816 26.4367 10.6816 24.3262V20.613H6.39687ZM6.39687 1.83854H10.6816V9.38714H6.39687C4.10453 9.38714 2.24623 7.69733 2.24623 5.61284C2.24623 3.52835 4.10453 1.83854 6.39687 1.83854ZM12.7034 9.38714V1.83854H16.9881C19.2805 1.83854 21.1388 3.52835 21.1388 5.61284C21.1388 7.69733 19.2805 9.38714 16.9881 9.38714H12.7034Z" fill="#4AB1C8"/>
</svg>
