<svg width="31" height="30" viewBox="0 0 31 30" fill="none" xmlns="http://www.w3.org/2000/svg">
<path fill-rule="evenodd" clip-rule="evenodd" d="M15.3336 0C7.05514 0 0.362793 6.76041 0.362793 15.124C0.362793 21.8094 4.65081 27.4685 10.5994 29.4714C11.3432 29.622 11.6156 29.146 11.6156 28.7456C11.6156 28.3949 11.5911 27.1931 11.5911 25.9409C7.42654 26.8425 6.55932 24.138 6.55932 24.138C5.89005 22.3853 4.89841 21.9348 4.89841 21.9348C3.53537 21.0083 4.9977 21.0083 4.9977 21.0083C6.50968 21.1085 7.30305 22.5607 7.30305 22.5607C8.64127 24.8642 10.7977 24.2133 11.6652 23.8126C11.789 22.836 12.1859 22.16 12.6072 21.7845C9.28572 21.4339 5.79107 20.1319 5.79107 14.3225C5.79107 12.6699 6.38557 11.3178 7.32756 10.2663C7.17894 9.89079 6.6583 8.33804 7.47649 6.25983C7.47649 6.25983 8.74056 5.85912 11.5908 7.81227C12.811 7.48121 14.0695 7.3128 15.3336 7.31138C16.5977 7.31138 17.8863 7.48685 19.0762 7.81227C21.9267 5.85912 23.1907 6.25983 23.1907 6.25983C24.0089 8.33804 23.488 9.89079 23.3394 10.2663C24.3062 11.3178 24.8762 12.6699 24.8762 14.3225C24.8762 20.1319 21.3815 21.4087 18.0352 21.7845C18.5807 22.2602 19.0514 23.1615 19.0514 24.5888C19.0514 26.617 19.0268 28.2447 19.0268 28.7453C19.0268 29.146 19.2996 29.622 20.043 29.4717C25.9916 27.4682 30.2796 21.8094 30.2796 15.124C30.3041 6.76041 23.5873 0 15.3336 0Z" fill="#4AB1C8"/>
</svg>
