<svg width="31" height="30" viewBox="0 0 31 30" fill="none" xmlns="http://www.w3.org/2000/svg">
<path d="M15.5226 0C7.3119 0 0.629818 6.45387 0.626923 14.3855C0.624993 16.9219 1.31212 19.3974 2.61495 21.5777L0.501465 29.0323L8.39856 27.0319C10.5952 28.1842 13.0378 28.7852 15.5169 28.7835H15.5226C23.7334 28.7835 30.4155 22.3287 30.4184 14.3971C30.4203 10.5552 28.8723 6.93871 26.0592 4.22032C23.247 1.50097 19.5074 0.000967742 15.5226 0ZM15.5226 26.3535H15.5178C13.2962 26.3535 11.1171 25.7768 9.21597 24.6871L8.76239 24.4277L4.07798 25.6142L5.3287 21.2013L5.03436 20.7494C3.79802 18.8585 3.13988 16.6465 3.14091 14.3855C3.1438 7.79226 8.69869 2.43 15.5275 2.43C18.8338 2.43097 21.9422 3.67645 24.2806 5.93613C26.6189 8.19581 27.9053 11.2006 27.9034 14.3961C27.9005 20.9894 22.3466 26.3535 15.5217 26.3535H15.5226ZM22.3138 17.3971C21.9413 17.2181 20.1115 16.3481 19.7699 16.2271C19.4292 16.1081 19.1812 16.0461 18.9332 16.4061C18.6861 16.7661 17.972 17.5761 17.7558 17.8152C17.5377 18.0552 17.3206 18.0842 16.948 17.9052C16.5755 17.7252 15.376 17.3458 13.9554 16.1206C12.8485 15.1684 12.1015 13.9916 11.8844 13.6306C11.6672 13.2716 11.8612 13.0771 12.0475 12.8981C12.2144 12.7384 12.42 12.479 12.6053 12.269C12.7906 12.059 12.8523 11.909 12.9778 11.669C13.1013 11.43 13.0395 11.219 12.9459 11.04C12.8523 10.859 12.1092 9.09 11.7975 8.37097C11.4964 7.67032 11.1895 7.76419 10.9608 7.75258C10.7437 7.7429 10.4966 7.74 10.2467 7.74C10.0006 7.74 9.5962 7.83 9.25457 8.19C8.9139 8.55 7.95174 9.41903 7.95174 11.1881C7.95174 12.9581 9.28545 14.6671 9.47171 14.9071C9.65796 15.1461 12.0967 18.7781 15.8305 20.3361C16.7184 20.7048 17.4113 20.9265 17.9527 21.0929C18.8444 21.3668 19.656 21.3271 20.2968 21.2352C21.0109 21.1316 22.4991 20.3661 22.8079 19.5271C23.1186 18.6881 23.1186 17.9681 23.026 17.8181C22.9353 17.6681 22.6863 17.5781 22.3138 17.3971V17.3971Z" fill="#4AB1C8"/>
</svg>
